<mxfile host="app.diagrams.net" modified="2024-04-09T13:44:49.368Z" agent="Mozilla/5.0 (Windows NT 10.0; Win64; x64) AppleWebKit/537.36 (KHTML, like Gecko) Chrome/123.0.0.0 Safari/537.36" etag="WfZ7KLF8DxEVVcveY_h8" version="24.2.3" type="google">
  <diagram name="Página-1" id="BfALUsEX3Otc0U0BP-el">
    <mxGraphModel dx="1643" dy="700" grid="1" gridSize="10" guides="1" tooltips="1" connect="1" arrows="1" fold="1" page="1" pageScale="1" pageWidth="1169" pageHeight="1654" math="0" shadow="0">
      <root>
        <mxCell id="0" />
        <mxCell id="1" parent="0" />
        <mxCell id="qHd36HjmuWvCK6pgJUqW-3" value="" style="edgeStyle=orthogonalEdgeStyle;rounded=0;orthogonalLoop=1;jettySize=auto;html=1;" parent="1" source="qHd36HjmuWvCK6pgJUqW-1" target="qHd36HjmuWvCK6pgJUqW-2" edge="1">
          <mxGeometry relative="1" as="geometry" />
        </mxCell>
        <mxCell id="qHd36HjmuWvCK6pgJUqW-1" value="Login/Sign" style="ellipse;whiteSpace=wrap;html=1;" parent="1" vertex="1">
          <mxGeometry x="31" y="75" width="90" height="50" as="geometry" />
        </mxCell>
        <mxCell id="qHd36HjmuWvCK6pgJUqW-2" value="Login/Sign" style="whiteSpace=wrap;html=1;" parent="1" vertex="1">
          <mxGeometry x="211" y="70" width="120" height="60" as="geometry" />
        </mxCell>
        <mxCell id="qHd36HjmuWvCK6pgJUqW-4" value="&lt;font style=&quot;font-size: 8px;&quot;&gt;Aceder&lt;/font&gt;" style="text;html=1;align=center;verticalAlign=middle;resizable=0;points=[];autosize=1;strokeColor=none;fillColor=none;" parent="1" vertex="1">
          <mxGeometry x="136" y="75" width="50" height="30" as="geometry" />
        </mxCell>
        <mxCell id="qHd36HjmuWvCK6pgJUqW-8" value="" style="edgeStyle=orthogonalEdgeStyle;rounded=0;orthogonalLoop=1;jettySize=auto;html=1;" parent="1" source="qHd36HjmuWvCK6pgJUqW-6" target="qHd36HjmuWvCK6pgJUqW-7" edge="1">
          <mxGeometry relative="1" as="geometry" />
        </mxCell>
        <mxCell id="qHd36HjmuWvCK6pgJUqW-6" value="Notícias" style="ellipse;whiteSpace=wrap;html=1;" parent="1" vertex="1">
          <mxGeometry x="35" y="260" width="90" height="50" as="geometry" />
        </mxCell>
        <mxCell id="qHd36HjmuWvCK6pgJUqW-10" value="" style="edgeStyle=orthogonalEdgeStyle;rounded=0;orthogonalLoop=1;jettySize=auto;html=1;" parent="1" source="qHd36HjmuWvCK6pgJUqW-7" target="qHd36HjmuWvCK6pgJUqW-9" edge="1">
          <mxGeometry relative="1" as="geometry">
            <Array as="points">
              <mxPoint x="365" y="280" />
              <mxPoint x="365" y="280" />
            </Array>
          </mxGeometry>
        </mxCell>
        <mxCell id="qHd36HjmuWvCK6pgJUqW-18" style="edgeStyle=orthogonalEdgeStyle;rounded=0;orthogonalLoop=1;jettySize=auto;html=1;" parent="1" edge="1">
          <mxGeometry relative="1" as="geometry">
            <mxPoint x="255" y="379.9999999999999" as="targetPoint" />
            <mxPoint x="255" y="315.0000000000001" as="sourcePoint" />
            <Array as="points">
              <mxPoint x="255" y="350" />
              <mxPoint x="255" y="350" />
            </Array>
          </mxGeometry>
        </mxCell>
        <mxCell id="qHd36HjmuWvCK6pgJUqW-7" value="&lt;div&gt;&lt;br&gt;&lt;/div&gt;&lt;div&gt;Página&lt;/div&gt;&lt;div&gt;Notícias&lt;/div&gt;&lt;div&gt;&lt;br&gt;&lt;/div&gt;" style="whiteSpace=wrap;html=1;" parent="1" vertex="1">
          <mxGeometry x="190" y="255" width="120" height="60" as="geometry" />
        </mxCell>
        <mxCell id="qHd36HjmuWvCK6pgJUqW-11" style="edgeStyle=orthogonalEdgeStyle;rounded=0;orthogonalLoop=1;jettySize=auto;html=1;entryX=0.999;entryY=0.579;entryDx=0;entryDy=0;entryPerimeter=0;exitX=0.003;exitY=0.585;exitDx=0;exitDy=0;exitPerimeter=0;" parent="1" source="qHd36HjmuWvCK6pgJUqW-9" target="qHd36HjmuWvCK6pgJUqW-7" edge="1">
          <mxGeometry relative="1" as="geometry">
            <mxPoint x="389" y="290" as="sourcePoint" />
            <mxPoint x="315" y="290" as="targetPoint" />
          </mxGeometry>
        </mxCell>
        <mxCell id="qHd36HjmuWvCK6pgJUqW-9" value="&lt;div&gt;&lt;br&gt;&lt;/div&gt;&lt;div&gt;Página&lt;/div&gt;&lt;div&gt;Estatísticas&lt;/div&gt;&lt;div&gt;&lt;br&gt;&lt;/div&gt;" style="whiteSpace=wrap;html=1;" parent="1" vertex="1">
          <mxGeometry x="390" y="255" width="120" height="60" as="geometry" />
        </mxCell>
        <mxCell id="qHd36HjmuWvCK6pgJUqW-12" value="&lt;font style=&quot;font-size: 8px;&quot;&gt;Ver estatísticas&lt;/font&gt;" style="text;html=1;align=center;verticalAlign=middle;resizable=0;points=[];autosize=1;strokeColor=none;fillColor=none;" parent="1" vertex="1">
          <mxGeometry x="305" y="255" width="80" height="30" as="geometry" />
        </mxCell>
        <mxCell id="qHd36HjmuWvCK6pgJUqW-13" value="&lt;font style=&quot;font-size: 8px;&quot;&gt;Back&lt;/font&gt;" style="text;html=1;align=center;verticalAlign=middle;resizable=0;points=[];autosize=1;strokeColor=none;fillColor=none;" parent="1" vertex="1">
          <mxGeometry x="325" y="285" width="40" height="30" as="geometry" />
        </mxCell>
        <mxCell id="qHd36HjmuWvCK6pgJUqW-14" value="&lt;span style=&quot;font-size: 8px;&quot;&gt;Aceder&lt;/span&gt;" style="text;html=1;align=center;verticalAlign=middle;resizable=0;points=[];autosize=1;strokeColor=none;fillColor=none;" parent="1" vertex="1">
          <mxGeometry x="125" y="260" width="50" height="30" as="geometry" />
        </mxCell>
        <mxCell id="qHd36HjmuWvCK6pgJUqW-16" style="edgeStyle=orthogonalEdgeStyle;rounded=0;orthogonalLoop=1;jettySize=auto;html=1;entryX=1;entryY=0.75;entryDx=0;entryDy=0;" parent="1" source="qHd36HjmuWvCK6pgJUqW-9" target="qHd36HjmuWvCK6pgJUqW-9" edge="1">
          <mxGeometry relative="1" as="geometry" />
        </mxCell>
        <mxCell id="qHd36HjmuWvCK6pgJUqW-17" value="&lt;font style=&quot;font-size: 8px;&quot;&gt;Mudar para estatísticas positivas&lt;/font&gt;" style="text;html=1;align=center;verticalAlign=middle;resizable=0;points=[];autosize=1;strokeColor=none;fillColor=none;" parent="1" vertex="1">
          <mxGeometry x="445" y="210" width="140" height="30" as="geometry" />
        </mxCell>
        <mxCell id="qHd36HjmuWvCK6pgJUqW-20" style="edgeStyle=orthogonalEdgeStyle;rounded=0;orthogonalLoop=1;jettySize=auto;html=1;entryX=0.458;entryY=1;entryDx=0;entryDy=0;entryPerimeter=0;" parent="1" edge="1">
          <mxGeometry relative="1" as="geometry">
            <mxPoint x="252.51999999999998" y="380" as="sourcePoint" />
            <mxPoint x="247.48000000000002" y="315" as="targetPoint" />
            <Array as="points">
              <mxPoint x="247" y="380" />
              <mxPoint x="247" y="348" />
              <mxPoint x="248" y="348" />
            </Array>
          </mxGeometry>
        </mxCell>
        <mxCell id="qHd36HjmuWvCK6pgJUqW-19" value="&lt;div&gt;Notícia Selecionada Completa&lt;/div&gt;" style="whiteSpace=wrap;html=1;" parent="1" vertex="1">
          <mxGeometry x="190" y="380" width="120" height="60" as="geometry" />
        </mxCell>
        <mxCell id="qHd36HjmuWvCK6pgJUqW-21" value="&lt;span style=&quot;color: rgb(0, 0, 0); font-family: Helvetica; font-size: 8px; font-style: normal; font-variant-ligatures: normal; font-variant-caps: normal; font-weight: 400; letter-spacing: normal; orphans: 2; text-align: center; text-indent: 0px; text-transform: none; widows: 2; word-spacing: 0px; -webkit-text-stroke-width: 0px; white-space: nowrap; background-color: rgb(251, 251, 251); text-decoration-thickness: initial; text-decoration-style: initial; text-decoration-color: initial; display: inline !important; float: none;&quot;&gt;Escolher Notícia&lt;/span&gt;" style="text;whiteSpace=wrap;html=1;" parent="1" vertex="1">
          <mxGeometry x="255" y="330" width="90" height="40" as="geometry" />
        </mxCell>
        <mxCell id="qHd36HjmuWvCK6pgJUqW-22" value="&lt;span style=&quot;color: rgb(0, 0, 0); font-family: Helvetica; font-size: 8px; font-style: normal; font-variant-ligatures: normal; font-variant-caps: normal; font-weight: 400; letter-spacing: normal; orphans: 2; text-align: center; text-indent: 0px; text-transform: none; widows: 2; word-spacing: 0px; -webkit-text-stroke-width: 0px; white-space: nowrap; background-color: rgb(251, 251, 251); text-decoration-thickness: initial; text-decoration-style: initial; text-decoration-color: initial; display: inline !important; float: none;&quot;&gt;Back&lt;/span&gt;" style="text;whiteSpace=wrap;html=1;" parent="1" vertex="1">
          <mxGeometry x="220" y="330" width="90" height="40" as="geometry" />
        </mxCell>
        <mxCell id="qHd36HjmuWvCK6pgJUqW-54" value="" style="edgeStyle=orthogonalEdgeStyle;rounded=0;orthogonalLoop=1;jettySize=auto;html=1;" parent="1" source="qHd36HjmuWvCK6pgJUqW-55" target="qHd36HjmuWvCK6pgJUqW-58" edge="1">
          <mxGeometry relative="1" as="geometry" />
        </mxCell>
        <mxCell id="qHd36HjmuWvCK6pgJUqW-55" value="Pesquisar Produtos" style="ellipse;whiteSpace=wrap;html=1;" parent="1" vertex="1">
          <mxGeometry x="34" y="550" width="90" height="50" as="geometry" />
        </mxCell>
        <mxCell id="qHd36HjmuWvCK6pgJUqW-56" value="" style="edgeStyle=orthogonalEdgeStyle;rounded=0;orthogonalLoop=1;jettySize=auto;html=1;" parent="1" source="qHd36HjmuWvCK6pgJUqW-58" target="qHd36HjmuWvCK6pgJUqW-60" edge="1">
          <mxGeometry relative="1" as="geometry">
            <Array as="points">
              <mxPoint x="364" y="570" />
              <mxPoint x="364" y="570" />
            </Array>
          </mxGeometry>
        </mxCell>
        <mxCell id="qHd36HjmuWvCK6pgJUqW-58" value="&lt;div&gt;Página Principal / Search Page&lt;/div&gt;" style="whiteSpace=wrap;html=1;" parent="1" vertex="1">
          <mxGeometry x="189" y="545" width="120" height="60" as="geometry" />
        </mxCell>
        <mxCell id="qHd36HjmuWvCK6pgJUqW-59" style="edgeStyle=orthogonalEdgeStyle;rounded=0;orthogonalLoop=1;jettySize=auto;html=1;entryX=0.998;entryY=0.581;entryDx=0;entryDy=0;entryPerimeter=0;exitX=0.042;exitY=0.581;exitDx=0;exitDy=0;exitPerimeter=0;" parent="1" source="qHd36HjmuWvCK6pgJUqW-60" target="qHd36HjmuWvCK6pgJUqW-58" edge="1">
          <mxGeometry relative="1" as="geometry">
            <mxPoint x="388" y="580" as="sourcePoint" />
            <mxPoint x="314" y="580" as="targetPoint" />
          </mxGeometry>
        </mxCell>
        <mxCell id="qHd36HjmuWvCK6pgJUqW-60" value="&lt;div&gt;Categorias Supermercado&lt;/div&gt;" style="whiteSpace=wrap;html=1;" parent="1" vertex="1">
          <mxGeometry x="389" y="545" width="120" height="60" as="geometry" />
        </mxCell>
        <mxCell id="qHd36HjmuWvCK6pgJUqW-61" value="&lt;font style=&quot;font-size: 8px;&quot;&gt;Selecionar market&lt;/font&gt;" style="text;html=1;align=center;verticalAlign=middle;resizable=0;points=[];autosize=1;strokeColor=none;fillColor=none;" parent="1" vertex="1">
          <mxGeometry x="299" y="545" width="90" height="30" as="geometry" />
        </mxCell>
        <mxCell id="qHd36HjmuWvCK6pgJUqW-62" value="&lt;font style=&quot;font-size: 8px;&quot;&gt;Back&lt;/font&gt;" style="text;html=1;align=center;verticalAlign=middle;resizable=0;points=[];autosize=1;strokeColor=none;fillColor=none;" parent="1" vertex="1">
          <mxGeometry x="324" y="575" width="40" height="30" as="geometry" />
        </mxCell>
        <mxCell id="qHd36HjmuWvCK6pgJUqW-63" value="&lt;span style=&quot;font-size: 8px;&quot;&gt;Aceder&lt;/span&gt;" style="text;html=1;align=center;verticalAlign=middle;resizable=0;points=[];autosize=1;strokeColor=none;fillColor=none;" parent="1" vertex="1">
          <mxGeometry x="124" y="550" width="50" height="30" as="geometry" />
        </mxCell>
        <mxCell id="qHd36HjmuWvCK6pgJUqW-81" value="&lt;span style=&quot;color: rgb(0, 0, 0); font-family: Helvetica; font-size: 8px; font-style: normal; font-variant-ligatures: normal; font-variant-caps: normal; font-weight: 400; letter-spacing: normal; orphans: 2; text-align: center; text-indent: 0px; text-transform: none; widows: 2; word-spacing: 0px; -webkit-text-stroke-width: 0px; white-space: nowrap; background-color: rgb(251, 251, 251); text-decoration-thickness: initial; text-decoration-style: initial; text-decoration-color: initial; display: inline !important; float: none;&quot;&gt;Escolher Categoria&lt;/span&gt;" style="text;whiteSpace=wrap;html=1;" parent="1" vertex="1">
          <mxGeometry x="514" y="545" width="90" height="40" as="geometry" />
        </mxCell>
        <mxCell id="qHd36HjmuWvCK6pgJUqW-87" value="" style="edgeStyle=orthogonalEdgeStyle;rounded=0;orthogonalLoop=1;jettySize=auto;html=1;exitX=1.009;exitY=0.418;exitDx=0;exitDy=0;exitPerimeter=0;" parent="1" source="qHd36HjmuWvCK6pgJUqW-60" target="qHd36HjmuWvCK6pgJUqW-89" edge="1">
          <mxGeometry relative="1" as="geometry">
            <Array as="points">
              <mxPoint x="574" y="570" />
              <mxPoint x="574" y="570" />
            </Array>
            <mxPoint x="514" y="570" as="sourcePoint" />
          </mxGeometry>
        </mxCell>
        <mxCell id="qHd36HjmuWvCK6pgJUqW-88" style="edgeStyle=orthogonalEdgeStyle;rounded=0;orthogonalLoop=1;jettySize=auto;html=1;exitX=0.042;exitY=0.581;exitDx=0;exitDy=0;exitPerimeter=0;entryX=0.995;entryY=0.584;entryDx=0;entryDy=0;entryPerimeter=0;" parent="1" source="qHd36HjmuWvCK6pgJUqW-89" target="qHd36HjmuWvCK6pgJUqW-60" edge="1">
          <mxGeometry relative="1" as="geometry">
            <mxPoint x="592" y="580" as="sourcePoint" />
            <mxPoint x="514" y="580" as="targetPoint" />
          </mxGeometry>
        </mxCell>
        <mxCell id="qHd36HjmuWvCK6pgJUqW-89" value="Produtos Categoria Selecionada" style="whiteSpace=wrap;html=1;" parent="1" vertex="1">
          <mxGeometry x="593" y="545" width="120" height="60" as="geometry" />
        </mxCell>
        <mxCell id="qHd36HjmuWvCK6pgJUqW-91" value="&lt;font style=&quot;font-size: 8px;&quot;&gt;Back&lt;/font&gt;" style="text;html=1;align=center;verticalAlign=middle;resizable=0;points=[];autosize=1;strokeColor=none;fillColor=none;" parent="1" vertex="1">
          <mxGeometry x="528" y="575" width="40" height="30" as="geometry" />
        </mxCell>
        <mxCell id="qHd36HjmuWvCK6pgJUqW-92" value="" style="edgeStyle=orthogonalEdgeStyle;rounded=0;orthogonalLoop=1;jettySize=auto;html=1;" parent="1" target="qHd36HjmuWvCK6pgJUqW-94" edge="1">
          <mxGeometry relative="1" as="geometry">
            <mxPoint x="713" y="565" as="sourcePoint" />
            <Array as="points">
              <mxPoint x="768" y="565" />
              <mxPoint x="768" y="565" />
            </Array>
          </mxGeometry>
        </mxCell>
        <mxCell id="qHd36HjmuWvCK6pgJUqW-93" style="edgeStyle=orthogonalEdgeStyle;rounded=0;orthogonalLoop=1;jettySize=auto;html=1;entryX=0.999;entryY=0.579;entryDx=0;entryDy=0;entryPerimeter=0;exitX=0.003;exitY=0.585;exitDx=0;exitDy=0;exitPerimeter=0;" parent="1" source="qHd36HjmuWvCK6pgJUqW-94" edge="1">
          <mxGeometry relative="1" as="geometry">
            <mxPoint x="792" y="575" as="sourcePoint" />
            <mxPoint x="713" y="575" as="targetPoint" />
          </mxGeometry>
        </mxCell>
        <mxCell id="qHd36HjmuWvCK6pgJUqW-94" value="&lt;div&gt;Informação&lt;/div&gt;&lt;div&gt;Produto&lt;/div&gt;" style="whiteSpace=wrap;html=1;" parent="1" vertex="1">
          <mxGeometry x="793" y="540" width="120" height="60" as="geometry" />
        </mxCell>
        <mxCell id="qHd36HjmuWvCK6pgJUqW-95" value="&lt;font style=&quot;font-size: 8px;&quot;&gt;Back&lt;/font&gt;" style="text;html=1;align=center;verticalAlign=middle;resizable=0;points=[];autosize=1;strokeColor=none;fillColor=none;" parent="1" vertex="1">
          <mxGeometry x="728" y="570" width="40" height="30" as="geometry" />
        </mxCell>
        <mxCell id="qHd36HjmuWvCK6pgJUqW-98" value="&lt;span style=&quot;font-size: 8px;&quot;&gt;Selecionar Produto&lt;/span&gt;" style="text;html=1;align=center;verticalAlign=middle;resizable=0;points=[];autosize=1;strokeColor=none;fillColor=none;" parent="1" vertex="1">
          <mxGeometry x="703" y="540" width="90" height="30" as="geometry" />
        </mxCell>
        <mxCell id="qHd36HjmuWvCK6pgJUqW-110" value="" style="edgeStyle=orthogonalEdgeStyle;rounded=0;orthogonalLoop=1;jettySize=auto;html=1;" parent="1" source="qHd36HjmuWvCK6pgJUqW-111" target="qHd36HjmuWvCK6pgJUqW-113" edge="1">
          <mxGeometry relative="1" as="geometry" />
        </mxCell>
        <mxCell id="qHd36HjmuWvCK6pgJUqW-111" value="Scan QRCode Produto" style="ellipse;whiteSpace=wrap;html=1;" parent="1" vertex="1">
          <mxGeometry x="31" y="742.5" width="90" height="50" as="geometry" />
        </mxCell>
        <mxCell id="qHd36HjmuWvCK6pgJUqW-112" value="" style="edgeStyle=orthogonalEdgeStyle;rounded=0;orthogonalLoop=1;jettySize=auto;html=1;" parent="1" source="qHd36HjmuWvCK6pgJUqW-113" target="qHd36HjmuWvCK6pgJUqW-115" edge="1">
          <mxGeometry relative="1" as="geometry">
            <Array as="points">
              <mxPoint x="361" y="762.5" />
              <mxPoint x="361" y="762.5" />
            </Array>
          </mxGeometry>
        </mxCell>
        <mxCell id="qHd36HjmuWvCK6pgJUqW-113" value="&lt;div&gt;Leitor QRCode&lt;/div&gt;" style="whiteSpace=wrap;html=1;" parent="1" vertex="1">
          <mxGeometry x="186" y="737.5" width="120" height="60" as="geometry" />
        </mxCell>
        <mxCell id="qHd36HjmuWvCK6pgJUqW-114" style="edgeStyle=orthogonalEdgeStyle;rounded=0;orthogonalLoop=1;jettySize=auto;html=1;entryX=0.998;entryY=0.581;entryDx=0;entryDy=0;entryPerimeter=0;exitX=0.042;exitY=0.581;exitDx=0;exitDy=0;exitPerimeter=0;" parent="1" source="qHd36HjmuWvCK6pgJUqW-115" target="qHd36HjmuWvCK6pgJUqW-113" edge="1">
          <mxGeometry relative="1" as="geometry">
            <mxPoint x="385" y="772.5" as="sourcePoint" />
            <mxPoint x="311" y="772.5" as="targetPoint" />
          </mxGeometry>
        </mxCell>
        <mxCell id="qHd36HjmuWvCK6pgJUqW-115" value="&lt;div&gt;Detalhes Produto&lt;/div&gt;" style="whiteSpace=wrap;html=1;" parent="1" vertex="1">
          <mxGeometry x="386" y="737.5" width="120" height="60" as="geometry" />
        </mxCell>
        <mxCell id="qHd36HjmuWvCK6pgJUqW-116" value="&lt;font style=&quot;font-size: 8px;&quot;&gt;Ver detalhes&lt;/font&gt;" style="text;html=1;align=center;verticalAlign=middle;resizable=0;points=[];autosize=1;strokeColor=none;fillColor=none;" parent="1" vertex="1">
          <mxGeometry x="306" y="737.5" width="70" height="30" as="geometry" />
        </mxCell>
        <mxCell id="qHd36HjmuWvCK6pgJUqW-117" value="&lt;font style=&quot;font-size: 8px;&quot;&gt;Back&lt;/font&gt;" style="text;html=1;align=center;verticalAlign=middle;resizable=0;points=[];autosize=1;strokeColor=none;fillColor=none;" parent="1" vertex="1">
          <mxGeometry x="321" y="767.5" width="40" height="30" as="geometry" />
        </mxCell>
        <mxCell id="qHd36HjmuWvCK6pgJUqW-118" value="&lt;span style=&quot;font-size: 8px;&quot;&gt;Aceder&lt;/span&gt;" style="text;html=1;align=center;verticalAlign=middle;resizable=0;points=[];autosize=1;strokeColor=none;fillColor=none;" parent="1" vertex="1">
          <mxGeometry x="121" y="742.5" width="50" height="30" as="geometry" />
        </mxCell>
        <mxCell id="qHd36HjmuWvCK6pgJUqW-119" value="&lt;span style=&quot;color: rgb(0, 0, 0); font-family: Helvetica; font-size: 8px; font-style: normal; font-variant-ligatures: normal; font-variant-caps: normal; font-weight: 400; letter-spacing: normal; orphans: 2; text-align: center; text-indent: 0px; text-transform: none; widows: 2; word-spacing: 0px; -webkit-text-stroke-width: 0px; white-space: nowrap; background-color: rgb(251, 251, 251); text-decoration-thickness: initial; text-decoration-style: initial; text-decoration-color: initial; display: inline !important; float: none;&quot;&gt;Expandir&lt;/span&gt;" style="text;whiteSpace=wrap;html=1;" parent="1" vertex="1">
          <mxGeometry x="525" y="737.5" width="90" height="40" as="geometry" />
        </mxCell>
        <mxCell id="qHd36HjmuWvCK6pgJUqW-120" value="" style="edgeStyle=orthogonalEdgeStyle;rounded=0;orthogonalLoop=1;jettySize=auto;html=1;exitX=1.009;exitY=0.418;exitDx=0;exitDy=0;exitPerimeter=0;" parent="1" source="qHd36HjmuWvCK6pgJUqW-115" target="qHd36HjmuWvCK6pgJUqW-122" edge="1">
          <mxGeometry relative="1" as="geometry">
            <Array as="points">
              <mxPoint x="571" y="762.5" />
              <mxPoint x="571" y="762.5" />
            </Array>
            <mxPoint x="511" y="762.5" as="sourcePoint" />
          </mxGeometry>
        </mxCell>
        <mxCell id="qHd36HjmuWvCK6pgJUqW-121" style="edgeStyle=orthogonalEdgeStyle;rounded=0;orthogonalLoop=1;jettySize=auto;html=1;exitX=0.042;exitY=0.581;exitDx=0;exitDy=0;exitPerimeter=0;entryX=0.995;entryY=0.584;entryDx=0;entryDy=0;entryPerimeter=0;" parent="1" source="qHd36HjmuWvCK6pgJUqW-122" target="qHd36HjmuWvCK6pgJUqW-115" edge="1">
          <mxGeometry relative="1" as="geometry">
            <mxPoint x="589" y="772.5" as="sourcePoint" />
            <mxPoint x="511" y="772.5" as="targetPoint" />
          </mxGeometry>
        </mxCell>
        <mxCell id="qHd36HjmuWvCK6pgJUqW-122" value="Detalhes Extra" style="whiteSpace=wrap;html=1;" parent="1" vertex="1">
          <mxGeometry x="590" y="737.5" width="120" height="60" as="geometry" />
        </mxCell>
        <mxCell id="qHd36HjmuWvCK6pgJUqW-123" value="&lt;font style=&quot;font-size: 8px;&quot;&gt;Back&lt;/font&gt;" style="text;html=1;align=center;verticalAlign=middle;resizable=0;points=[];autosize=1;strokeColor=none;fillColor=none;" parent="1" vertex="1">
          <mxGeometry x="525" y="767.5" width="40" height="30" as="geometry" />
        </mxCell>
        <mxCell id="qHd36HjmuWvCK6pgJUqW-124" value="" style="edgeStyle=orthogonalEdgeStyle;rounded=0;orthogonalLoop=1;jettySize=auto;html=1;" parent="1" target="qHd36HjmuWvCK6pgJUqW-126" edge="1">
          <mxGeometry relative="1" as="geometry">
            <mxPoint x="710" y="757.5" as="sourcePoint" />
            <Array as="points">
              <mxPoint x="765" y="757.5" />
              <mxPoint x="765" y="757.5" />
            </Array>
          </mxGeometry>
        </mxCell>
        <mxCell id="qHd36HjmuWvCK6pgJUqW-125" style="edgeStyle=orthogonalEdgeStyle;rounded=0;orthogonalLoop=1;jettySize=auto;html=1;entryX=0.999;entryY=0.579;entryDx=0;entryDy=0;entryPerimeter=0;exitX=0.003;exitY=0.585;exitDx=0;exitDy=0;exitPerimeter=0;" parent="1" source="qHd36HjmuWvCK6pgJUqW-126" edge="1">
          <mxGeometry relative="1" as="geometry">
            <mxPoint x="789" y="767.5" as="sourcePoint" />
            <mxPoint x="710" y="767.5" as="targetPoint" />
          </mxGeometry>
        </mxCell>
        <mxCell id="qHd36HjmuWvCK6pgJUqW-126" value="Tabela Extra Informativa" style="whiteSpace=wrap;html=1;" parent="1" vertex="1">
          <mxGeometry x="790" y="732.5" width="120" height="60" as="geometry" />
        </mxCell>
        <mxCell id="qHd36HjmuWvCK6pgJUqW-127" value="&lt;font style=&quot;font-size: 8px;&quot;&gt;Back&lt;/font&gt;" style="text;html=1;align=center;verticalAlign=middle;resizable=0;points=[];autosize=1;strokeColor=none;fillColor=none;" parent="1" vertex="1">
          <mxGeometry x="725" y="762.5" width="40" height="30" as="geometry" />
        </mxCell>
        <mxCell id="qHd36HjmuWvCK6pgJUqW-128" value="&lt;span style=&quot;font-size: 8px;&quot;&gt;Ver mais&lt;/span&gt;" style="text;html=1;align=center;verticalAlign=middle;resizable=0;points=[];autosize=1;strokeColor=none;fillColor=none;" parent="1" vertex="1">
          <mxGeometry x="720" y="732.5" width="50" height="30" as="geometry" />
        </mxCell>
        <mxCell id="qHd36HjmuWvCK6pgJUqW-131" style="edgeStyle=orthogonalEdgeStyle;rounded=0;orthogonalLoop=1;jettySize=auto;html=1;exitX=0;exitY=0.75;exitDx=0;exitDy=0;entryX=0.5;entryY=1;entryDx=0;entryDy=0;" parent="1" source="qHd36HjmuWvCK6pgJUqW-113" target="qHd36HjmuWvCK6pgJUqW-113" edge="1">
          <mxGeometry relative="1" as="geometry" />
        </mxCell>
        <mxCell id="qHd36HjmuWvCK6pgJUqW-132" value="&lt;span style=&quot;font-size: 8px;&quot;&gt;Fazer scan novamente&lt;/span&gt;" style="text;html=1;align=center;verticalAlign=middle;resizable=0;points=[];autosize=1;strokeColor=none;fillColor=none;" parent="1" vertex="1">
          <mxGeometry x="146" y="812.5" width="100" height="30" as="geometry" />
        </mxCell>
        <mxCell id="qHd36HjmuWvCK6pgJUqW-156" style="edgeStyle=orthogonalEdgeStyle;rounded=0;orthogonalLoop=1;jettySize=auto;html=1;exitX=1;exitY=0.5;exitDx=0;exitDy=0;entryX=0;entryY=0.5;entryDx=0;entryDy=0;" parent="1" source="qHd36HjmuWvCK6pgJUqW-134" target="qHd36HjmuWvCK6pgJUqW-136" edge="1">
          <mxGeometry relative="1" as="geometry" />
        </mxCell>
        <mxCell id="qHd36HjmuWvCK6pgJUqW-134" value="&lt;font style=&quot;font-size: 11px;&quot;&gt;Produtos Salvos/Feedback&lt;/font&gt;" style="ellipse;whiteSpace=wrap;html=1;" parent="1" vertex="1">
          <mxGeometry x="35" y="1065" width="110" height="50" as="geometry" />
        </mxCell>
        <mxCell id="qHd36HjmuWvCK6pgJUqW-135" value="" style="edgeStyle=orthogonalEdgeStyle;rounded=0;orthogonalLoop=1;jettySize=auto;html=1;" parent="1" source="qHd36HjmuWvCK6pgJUqW-136" target="qHd36HjmuWvCK6pgJUqW-138" edge="1">
          <mxGeometry relative="1" as="geometry">
            <Array as="points">
              <mxPoint x="375" y="1090.5" />
              <mxPoint x="375" y="1090.5" />
            </Array>
          </mxGeometry>
        </mxCell>
        <mxCell id="qHd36HjmuWvCK6pgJUqW-136" value="Página Principal / Search Page" style="whiteSpace=wrap;html=1;" parent="1" vertex="1">
          <mxGeometry x="211" y="1060" width="120" height="60" as="geometry" />
        </mxCell>
        <mxCell id="qHd36HjmuWvCK6pgJUqW-138" value="&lt;div&gt;Produtos Salvos&lt;/div&gt;" style="whiteSpace=wrap;html=1;" parent="1" vertex="1">
          <mxGeometry x="411" y="1060" width="120" height="60" as="geometry" />
        </mxCell>
        <mxCell id="qHd36HjmuWvCK6pgJUqW-139" value="&lt;font style=&quot;font-size: 8px;&quot;&gt;Aceder&lt;/font&gt;" style="text;html=1;align=center;verticalAlign=middle;resizable=0;points=[];autosize=1;strokeColor=none;fillColor=none;" parent="1" vertex="1">
          <mxGeometry x="341" y="1065" width="50" height="30" as="geometry" />
        </mxCell>
        <mxCell id="qHd36HjmuWvCK6pgJUqW-141" value="&lt;span style=&quot;font-size: 8px;&quot;&gt;Aceder&lt;/span&gt;" style="text;html=1;align=center;verticalAlign=middle;resizable=0;points=[];autosize=1;strokeColor=none;fillColor=none;" parent="1" vertex="1">
          <mxGeometry x="146" y="1065" width="50" height="30" as="geometry" />
        </mxCell>
        <mxCell id="qHd36HjmuWvCK6pgJUqW-142" value="&lt;span style=&quot;color: rgb(0, 0, 0); font-family: Helvetica; font-style: normal; font-variant-ligatures: normal; font-variant-caps: normal; font-weight: 400; letter-spacing: normal; orphans: 2; text-align: center; text-indent: 0px; text-transform: none; widows: 2; word-spacing: 0px; -webkit-text-stroke-width: 0px; white-space: nowrap; background-color: rgb(251, 251, 251); text-decoration-thickness: initial; text-decoration-style: initial; text-decoration-color: initial; float: none; display: inline !important;&quot;&gt;&lt;font style=&quot;font-size: 6px;&quot;&gt;Selecionar produto guardado&lt;/font&gt;&lt;/span&gt;" style="text;whiteSpace=wrap;html=1;" parent="1" vertex="1">
          <mxGeometry x="531" y="1060" width="90" height="40" as="geometry" />
        </mxCell>
        <mxCell id="qHd36HjmuWvCK6pgJUqW-143" value="" style="edgeStyle=orthogonalEdgeStyle;rounded=0;orthogonalLoop=1;jettySize=auto;html=1;exitX=1.009;exitY=0.418;exitDx=0;exitDy=0;exitPerimeter=0;" parent="1" source="qHd36HjmuWvCK6pgJUqW-138" target="qHd36HjmuWvCK6pgJUqW-145" edge="1">
          <mxGeometry relative="1" as="geometry">
            <Array as="points">
              <mxPoint x="596" y="1085" />
              <mxPoint x="596" y="1085" />
            </Array>
            <mxPoint x="536" y="1085" as="sourcePoint" />
          </mxGeometry>
        </mxCell>
        <mxCell id="qHd36HjmuWvCK6pgJUqW-144" style="edgeStyle=orthogonalEdgeStyle;rounded=0;orthogonalLoop=1;jettySize=auto;html=1;exitX=0.042;exitY=0.581;exitDx=0;exitDy=0;exitPerimeter=0;entryX=0.995;entryY=0.584;entryDx=0;entryDy=0;entryPerimeter=0;" parent="1" source="qHd36HjmuWvCK6pgJUqW-145" target="qHd36HjmuWvCK6pgJUqW-138" edge="1">
          <mxGeometry relative="1" as="geometry">
            <mxPoint x="614" y="1095" as="sourcePoint" />
            <mxPoint x="536" y="1095" as="targetPoint" />
          </mxGeometry>
        </mxCell>
        <mxCell id="qHd36HjmuWvCK6pgJUqW-145" value="Detalhes Produto" style="whiteSpace=wrap;html=1;" parent="1" vertex="1">
          <mxGeometry x="615" y="1060" width="120" height="60" as="geometry" />
        </mxCell>
        <mxCell id="qHd36HjmuWvCK6pgJUqW-146" value="&lt;font style=&quot;font-size: 8px;&quot;&gt;Back&lt;/font&gt;" style="text;html=1;align=center;verticalAlign=middle;resizable=0;points=[];autosize=1;strokeColor=none;fillColor=none;" parent="1" vertex="1">
          <mxGeometry x="550" y="1090" width="40" height="30" as="geometry" />
        </mxCell>
        <mxCell id="qHd36HjmuWvCK6pgJUqW-147" value="" style="edgeStyle=orthogonalEdgeStyle;rounded=0;orthogonalLoop=1;jettySize=auto;html=1;" parent="1" edge="1">
          <mxGeometry relative="1" as="geometry">
            <mxPoint x="735" y="1080" as="sourcePoint" />
            <Array as="points">
              <mxPoint x="790" y="1080" />
              <mxPoint x="790" y="1080" />
            </Array>
            <mxPoint x="814.9999999999998" y="1080.0172413793105" as="targetPoint" />
          </mxGeometry>
        </mxCell>
        <mxCell id="qHd36HjmuWvCK6pgJUqW-148" style="edgeStyle=orthogonalEdgeStyle;rounded=0;orthogonalLoop=1;jettySize=auto;html=1;entryX=0.999;entryY=0.579;entryDx=0;entryDy=0;entryPerimeter=0;exitX=0.003;exitY=0.585;exitDx=0;exitDy=0;exitPerimeter=0;" parent="1" edge="1">
          <mxGeometry relative="1" as="geometry">
            <mxPoint x="815.3599999999999" y="1090.1" as="sourcePoint" />
            <mxPoint x="735" y="1090" as="targetPoint" />
          </mxGeometry>
        </mxCell>
        <mxCell id="qHd36HjmuWvCK6pgJUqW-150" value="&lt;font style=&quot;font-size: 8px;&quot;&gt;Back&lt;/font&gt;" style="text;html=1;align=center;verticalAlign=middle;resizable=0;points=[];autosize=1;strokeColor=none;fillColor=none;" parent="1" vertex="1">
          <mxGeometry x="750" y="1085" width="40" height="30" as="geometry" />
        </mxCell>
        <mxCell id="qHd36HjmuWvCK6pgJUqW-151" value="&lt;span style=&quot;font-size: 8px;&quot;&gt;Ver Feedback&lt;/span&gt;" style="text;html=1;align=center;verticalAlign=middle;resizable=0;points=[];autosize=1;strokeColor=none;fillColor=none;" parent="1" vertex="1">
          <mxGeometry x="735" y="1055" width="70" height="30" as="geometry" />
        </mxCell>
        <mxCell id="qHd36HjmuWvCK6pgJUqW-157" value="Feedback&amp;nbsp;&lt;div&gt;Produto&lt;/div&gt;" style="whiteSpace=wrap;html=1;" parent="1" vertex="1">
          <mxGeometry x="815" y="1060" width="120" height="60" as="geometry" />
        </mxCell>
        <mxCell id="qHd36HjmuWvCK6pgJUqW-158" style="edgeStyle=orthogonalEdgeStyle;rounded=0;orthogonalLoop=1;jettySize=auto;html=1;entryX=1;entryY=0.5;entryDx=0;entryDy=0;" parent="1" source="qHd36HjmuWvCK6pgJUqW-157" target="qHd36HjmuWvCK6pgJUqW-157" edge="1">
          <mxGeometry relative="1" as="geometry" />
        </mxCell>
        <mxCell id="qHd36HjmuWvCK6pgJUqW-159" value="&lt;font style=&quot;font-size: 8px;&quot;&gt;Dar Feedback&lt;/font&gt;" style="text;html=1;align=center;verticalAlign=middle;resizable=0;points=[];autosize=1;strokeColor=none;fillColor=none;" parent="1" vertex="1">
          <mxGeometry x="890" y="1010" width="70" height="30" as="geometry" />
        </mxCell>
        <mxCell id="BG9Y11elM1JLswkqEMeN-1" value="&lt;b&gt;&lt;font style=&quot;font-size: 18px;&quot;&gt;Story 1&lt;/font&gt;&lt;/b&gt;" style="text;html=1;align=center;verticalAlign=middle;resizable=0;points=[];autosize=1;strokeColor=none;fillColor=none;" parent="1" vertex="1">
          <mxGeometry x="31" y="23" width="80" height="40" as="geometry" />
        </mxCell>
        <mxCell id="QggE5B4f3zU-u3unbCch-1" value="&lt;b&gt;&lt;font style=&quot;font-size: 18px;&quot;&gt;Story 2&lt;/font&gt;&lt;/b&gt;" style="text;html=1;align=center;verticalAlign=middle;resizable=0;points=[];autosize=1;strokeColor=none;fillColor=none;" vertex="1" parent="1">
          <mxGeometry x="30" y="180" width="80" height="40" as="geometry" />
        </mxCell>
        <mxCell id="QggE5B4f3zU-u3unbCch-2" value="&lt;b&gt;&lt;font style=&quot;font-size: 18px;&quot;&gt;Story 3&lt;/font&gt;&lt;/b&gt;" style="text;html=1;align=center;verticalAlign=middle;resizable=0;points=[];autosize=1;strokeColor=none;fillColor=none;" vertex="1" parent="1">
          <mxGeometry x="26" y="490" width="80" height="40" as="geometry" />
        </mxCell>
        <mxCell id="QggE5B4f3zU-u3unbCch-3" value="&lt;b&gt;&lt;font style=&quot;font-size: 18px;&quot;&gt;Story 4&lt;/font&gt;&lt;/b&gt;" style="text;html=1;align=center;verticalAlign=middle;resizable=0;points=[];autosize=1;strokeColor=none;fillColor=none;" vertex="1" parent="1">
          <mxGeometry x="26" y="692.5" width="80" height="40" as="geometry" />
        </mxCell>
        <mxCell id="QggE5B4f3zU-u3unbCch-4" value="&lt;b&gt;&lt;font style=&quot;font-size: 18px;&quot;&gt;Story 5&lt;/font&gt;&lt;/b&gt;" style="text;html=1;align=center;verticalAlign=middle;resizable=0;points=[];autosize=1;strokeColor=none;fillColor=none;" vertex="1" parent="1">
          <mxGeometry x="30" y="1000" width="80" height="40" as="geometry" />
        </mxCell>
        <mxCell id="QggE5B4f3zU-u3unbCch-5" value="&lt;b style=&quot;forced-color-adjust: none; color: rgb(0, 0, 0); font-family: Helvetica; font-size: 12px; font-style: normal; font-variant-ligatures: normal; font-variant-caps: normal; letter-spacing: normal; orphans: 2; text-align: center; text-indent: 0px; text-transform: none; widows: 2; word-spacing: 0px; -webkit-text-stroke-width: 0px; white-space: nowrap; background-color: rgb(251, 251, 251); text-decoration-thickness: initial; text-decoration-style: initial; text-decoration-color: initial;&quot;&gt;&lt;font style=&quot;forced-color-adjust: none; font-size: 18px;&quot;&gt;Exemplo - História Completa&lt;/font&gt;&lt;/b&gt;" style="text;whiteSpace=wrap;html=1;" vertex="1" parent="1">
          <mxGeometry x="34" y="1200" width="90" height="50" as="geometry" />
        </mxCell>
        <mxCell id="QggE5B4f3zU-u3unbCch-8" style="edgeStyle=orthogonalEdgeStyle;rounded=0;orthogonalLoop=1;jettySize=auto;html=1;" edge="1" parent="1">
          <mxGeometry relative="1" as="geometry">
            <mxPoint x="450" y="862.4999999999999" as="targetPoint" />
            <mxPoint x="450" y="797.5000000000001" as="sourcePoint" />
            <Array as="points">
              <mxPoint x="450" y="832.5" />
              <mxPoint x="450" y="832.5" />
            </Array>
          </mxGeometry>
        </mxCell>
        <mxCell id="QggE5B4f3zU-u3unbCch-9" style="edgeStyle=orthogonalEdgeStyle;rounded=0;orthogonalLoop=1;jettySize=auto;html=1;entryX=0.458;entryY=1;entryDx=0;entryDy=0;entryPerimeter=0;" edge="1" parent="1">
          <mxGeometry relative="1" as="geometry">
            <mxPoint x="447.52" y="862.5" as="sourcePoint" />
            <mxPoint x="442.48" y="797.5" as="targetPoint" />
            <Array as="points">
              <mxPoint x="442" y="862.5" />
              <mxPoint x="442" y="830.5" />
              <mxPoint x="443" y="830.5" />
            </Array>
          </mxGeometry>
        </mxCell>
        <mxCell id="QggE5B4f3zU-u3unbCch-10" value="&lt;div&gt;Feedback&amp;nbsp;&lt;/div&gt;&lt;div&gt;Produto&lt;/div&gt;" style="whiteSpace=wrap;html=1;" vertex="1" parent="1">
          <mxGeometry x="385" y="862.5" width="120" height="60" as="geometry" />
        </mxCell>
        <mxCell id="QggE5B4f3zU-u3unbCch-11" value="&lt;span style=&quot;color: rgb(0, 0, 0); font-family: Helvetica; font-size: 8px; font-style: normal; font-variant-ligatures: normal; font-variant-caps: normal; font-weight: 400; letter-spacing: normal; orphans: 2; text-align: center; text-indent: 0px; text-transform: none; widows: 2; word-spacing: 0px; -webkit-text-stroke-width: 0px; white-space: nowrap; background-color: rgb(251, 251, 251); text-decoration-thickness: initial; text-decoration-style: initial; text-decoration-color: initial; display: inline !important; float: none;&quot;&gt;&amp;nbsp;Ver Feedback&amp;nbsp;&lt;/span&gt;" style="text;whiteSpace=wrap;html=1;" vertex="1" parent="1">
          <mxGeometry x="450" y="812.5" width="90" height="40" as="geometry" />
        </mxCell>
        <mxCell id="QggE5B4f3zU-u3unbCch-12" value="&lt;span style=&quot;color: rgb(0, 0, 0); font-family: Helvetica; font-size: 8px; font-style: normal; font-variant-ligatures: normal; font-variant-caps: normal; font-weight: 400; letter-spacing: normal; orphans: 2; text-align: center; text-indent: 0px; text-transform: none; widows: 2; word-spacing: 0px; -webkit-text-stroke-width: 0px; white-space: nowrap; background-color: rgb(251, 251, 251); text-decoration-thickness: initial; text-decoration-style: initial; text-decoration-color: initial; display: inline !important; float: none;&quot;&gt;Back&lt;/span&gt;" style="text;whiteSpace=wrap;html=1;" vertex="1" parent="1">
          <mxGeometry x="411" y="812.5" width="90" height="40" as="geometry" />
        </mxCell>
        <mxCell id="QggE5B4f3zU-u3unbCch-15" style="edgeStyle=orthogonalEdgeStyle;rounded=0;orthogonalLoop=1;jettySize=auto;html=1;exitX=0;exitY=0.5;exitDx=0;exitDy=0;entryX=0.405;entryY=1.005;entryDx=0;entryDy=0;entryPerimeter=0;" edge="1" parent="1" source="QggE5B4f3zU-u3unbCch-10" target="QggE5B4f3zU-u3unbCch-10">
          <mxGeometry relative="1" as="geometry" />
        </mxCell>
        <mxCell id="QggE5B4f3zU-u3unbCch-16" value="&lt;font style=&quot;font-size: 8px;&quot;&gt;Guardar Produto&lt;/font&gt;" style="text;html=1;align=center;verticalAlign=middle;resizable=0;points=[];autosize=1;strokeColor=none;fillColor=none;" vertex="1" parent="1">
          <mxGeometry x="285" y="900" width="80" height="30" as="geometry" />
        </mxCell>
        <mxCell id="QggE5B4f3zU-u3unbCch-17" value="&lt;p class=&quot;MsoNormal&quot; style=&quot;text-align:justify&quot;&gt;&lt;span style=&quot;font-family:&amp;quot;Calibri&amp;quot;,sans-serif&quot;&gt;&lt;font style=&quot;font-size: 14px;&quot;&gt;Jorge, de 32 anos, vai uma vez por semana comprar carne a um supermercado. Recentemente, este começou a questionar-se acerca da qualidade da carne. Ele gostaria de ter conhecimento sobre os detalhes do animal do qual provém a carne que compra. Felizmente, surgiu uma aplicação que responde a todas as dúvidas do Jorge: QRMeat. Após saber da existência desta app, rapidamente a instalou e criou a sua conta (&lt;b style=&quot;&quot;&gt;Story 1&lt;/b&gt;). Estando em casa desocupado, foi rapidamente descobrir todas as funcionalidades que tinha agora disponíveis. O primeiro ponto que o chamou a atenção foi a existência de uma funcionalidade que o permitia seguir de forma atualizada todas as informações relacionadas com a sua preocupação inicial. Quer as notícias quer as estatísticas serão frequentemente visitadas pelo Jorge. (&lt;b style=&quot;&quot;&gt;Story 2&lt;/b&gt;). Com o passar do tempo, foi-se aproximando a hora de jantar e, como tal, Jorge decidiu utilizar a sua nova app para ver que produtos o supermercado próximo da sua casa tinha à disposição. Selecionou a sua carne favorita e, estando a um bom preço, decidiu que seria uma ótima opção para a sua refeição (&lt;b style=&quot;&quot;&gt;Story 3&lt;/b&gt;). Finalmente, ao chegar ao supermercado, procurou a carne que tinha visto e fez scan do código presente na sua embalagem. Jorge explorou assim toda a informação disponível acerca da mesma e, satisfeito com o que leu e com os feedbacks já existentes, decidiu comprar e salvar o produto nos favoritos. (&lt;b style=&quot;&quot;&gt;Story 4&lt;/b&gt;).&amp;nbsp; Após comprar e desfrutar da sua maravilhosa refeição, abriu novamente a app para ir dar o seu feedback final (&lt;b style=&quot;&quot;&gt;Story 5&lt;/b&gt;).&lt;/font&gt;&lt;/span&gt;&lt;/p&gt;" style="text;whiteSpace=wrap;html=1;" vertex="1" parent="1">
          <mxGeometry x="34" y="1220" width="1085" height="190" as="geometry" />
        </mxCell>
        <mxCell id="QggE5B4f3zU-u3unbCch-25" style="edgeStyle=orthogonalEdgeStyle;rounded=0;orthogonalLoop=1;jettySize=auto;html=1;exitX=1;exitY=0.5;exitDx=0;exitDy=0;entryX=0;entryY=0.5;entryDx=0;entryDy=0;" edge="1" parent="1" source="QggE5B4f3zU-u3unbCch-18" target="QggE5B4f3zU-u3unbCch-19">
          <mxGeometry relative="1" as="geometry" />
        </mxCell>
        <mxCell id="QggE5B4f3zU-u3unbCch-18" value="Login/Sign" style="ellipse;whiteSpace=wrap;html=1;" vertex="1" parent="1">
          <mxGeometry x="61" y="1440" width="119" height="90" as="geometry" />
        </mxCell>
        <mxCell id="QggE5B4f3zU-u3unbCch-26" style="edgeStyle=orthogonalEdgeStyle;rounded=0;orthogonalLoop=1;jettySize=auto;html=1;exitX=1;exitY=0.5;exitDx=0;exitDy=0;entryX=0;entryY=0.5;entryDx=0;entryDy=0;" edge="1" parent="1" source="QggE5B4f3zU-u3unbCch-19" target="QggE5B4f3zU-u3unbCch-20">
          <mxGeometry relative="1" as="geometry" />
        </mxCell>
        <mxCell id="QggE5B4f3zU-u3unbCch-19" value="Notícias" style="ellipse;whiteSpace=wrap;html=1;" vertex="1" parent="1">
          <mxGeometry x="256" y="1440" width="124" height="90" as="geometry" />
        </mxCell>
        <mxCell id="QggE5B4f3zU-u3unbCch-27" style="edgeStyle=orthogonalEdgeStyle;rounded=0;orthogonalLoop=1;jettySize=auto;html=1;exitX=1;exitY=0.5;exitDx=0;exitDy=0;entryX=0;entryY=0.5;entryDx=0;entryDy=0;" edge="1" parent="1" source="QggE5B4f3zU-u3unbCch-20" target="QggE5B4f3zU-u3unbCch-22">
          <mxGeometry relative="1" as="geometry" />
        </mxCell>
        <mxCell id="QggE5B4f3zU-u3unbCch-20" value="Pesquisar Produtos" style="ellipse;whiteSpace=wrap;html=1;" vertex="1" parent="1">
          <mxGeometry x="460" y="1440" width="124" height="90" as="geometry" />
        </mxCell>
        <mxCell id="QggE5B4f3zU-u3unbCch-28" style="edgeStyle=orthogonalEdgeStyle;rounded=0;orthogonalLoop=1;jettySize=auto;html=1;exitX=1;exitY=0.5;exitDx=0;exitDy=0;entryX=0;entryY=0.5;entryDx=0;entryDy=0;" edge="1" parent="1" source="QggE5B4f3zU-u3unbCch-22" target="QggE5B4f3zU-u3unbCch-23">
          <mxGeometry relative="1" as="geometry" />
        </mxCell>
        <mxCell id="QggE5B4f3zU-u3unbCch-22" value="Scan QRCode Produto" style="ellipse;whiteSpace=wrap;html=1;" vertex="1" parent="1">
          <mxGeometry x="670" y="1440" width="130" height="90" as="geometry" />
        </mxCell>
        <mxCell id="QggE5B4f3zU-u3unbCch-23" value="&lt;font style=&quot;font-size: 11px;&quot;&gt;Produtos Salvos/&lt;/font&gt;&lt;div&gt;&lt;font style=&quot;font-size: 11px;&quot;&gt;Feedback&lt;/font&gt;&lt;/div&gt;" style="ellipse;whiteSpace=wrap;html=1;" vertex="1" parent="1">
          <mxGeometry x="880" y="1440" width="140" height="90" as="geometry" />
        </mxCell>
      </root>
    </mxGraphModel>
  </diagram>
</mxfile>
